<?xml version="1.0" ?>
<svg height="300" version="1.1" width="300" xmlns="http://www.w3.org/2000/svg">
  <defs/>
  <g>
    <path d="M 286.5079650878906 100.1552505493164 Q 287.5506286621094 107.46574401855469 291.7802429199219 106.51748657226562" fill="none" stroke="rgb(0, 0, 0)" stroke-linecap="round" stroke-linejoin="round" stroke-opacity="1.0" stroke-width="1.1891610622406006"/>
    <path d="M 165.50929260253906 249.94757080078125 Q 174.62289428710938 256.21026611328125 172.1293487548828 260.17559814453125" fill="none" stroke="rgb(0, 0, 0)" stroke-linecap="round" stroke-linejoin="round" stroke-opacity="1.0" stroke-width="0.33806124329566956"/>
    <path d="M 101.08805084228516 9.762401580810547 Q 99.9464111328125 8.033146858215332 96.91587829589844 5.610548973083496" fill="none" stroke="rgb(0, 0, 0)" stroke-linecap="round" stroke-linejoin="round" stroke-opacity="1.0" stroke-width="-0.06136550009250641"/>
    <path d="M 211.2682342529297 140.57366943359375 Q 205.51768493652344 139.14871215820312 210.74929809570312 141.7008514404297" fill="none" stroke="rgb(0, 0, 0)" stroke-linecap="round" stroke-linejoin="round" stroke-opacity="1.0" stroke-width="0.8933937549591064"/>
    <path d="M 76.96524810791016 117.29175567626953 Q 74.70704650878906 117.30406951904297 79.05171966552734 110.68949127197266" fill="none" stroke="rgb(0, 0, 0)" stroke-linecap="round" stroke-linejoin="round" stroke-opacity="1.0" stroke-width="-0.013731405138969421"/>
    <path d="M 231.30621337890625 105.4186019897461 Q 234.8415985107422 99.46136474609375 236.8610382080078 108.82173919677734" fill="none" stroke="rgb(0, 0, 0)" stroke-linecap="round" stroke-linejoin="round" stroke-opacity="1.0" stroke-width="1.9389456510543823"/>
    <path d="M 160.70753479003906 283.8041687011719 Q 162.28994750976562 277.9470520019531 162.66354370117188 280.6717834472656" fill="none" stroke="rgb(0, 0, 0)" stroke-linecap="round" stroke-linejoin="round" stroke-opacity="1.0" stroke-width="0.696783721446991"/>
    <path d="M 82.10206604003906 280.1867980957031 Q 76.02705383300781 286.8241882324219 76.8656997680664 284.2845153808594" fill="none" stroke="rgb(0, 0, 0)" stroke-linecap="round" stroke-linejoin="round" stroke-opacity="1.0" stroke-width="0.8649210929870605"/>
    <path d="M 280.775634765625 285.5893859863281 Q 287.14276123046875 282.9941711425781 278.26544189453125 282.77215576171875" fill="none" stroke="rgb(0, 0, 0)" stroke-linecap="round" stroke-linejoin="round" stroke-opacity="1.0" stroke-width="0.8644220232963562"/>
    <path d="M 175.16192626953125 72.71709442138672 Q 183.25807189941406 66.4626235961914 183.2872772216797 59.667110443115234" fill="none" stroke="rgb(0, 0, 0)" stroke-linecap="round" stroke-linejoin="round" stroke-opacity="1.0" stroke-width="1.485777735710144"/>
    <path d="M 188.0155792236328 287.92462158203125 Q 183.72604370117188 292.2188415527344 187.7373046875 287.79302978515625" fill="none" stroke="rgb(13, 13, 13)" stroke-linecap="round" stroke-linejoin="round" stroke-opacity="1.0" stroke-width="0.6235527992248535"/>
    <path d="M 39.72267532348633 41.26765441894531 Q 31.76532745361328 46.11418533325195 26.65813446044922 40.196311950683594" fill="none" stroke="rgb(13, 13, 13)" stroke-linecap="round" stroke-linejoin="round" stroke-opacity="1.0" stroke-width="1.779205322265625"/>
    <path d="M 221.31500244140625 100.6733627319336 Q 226.45257568359375 103.32515716552734 225.24485778808594 97.87423706054688" fill="none" stroke="rgb(13, 13, 13)" stroke-linecap="round" stroke-linejoin="round" stroke-opacity="1.0" stroke-width="1.9362231492996216"/>
    <path d="M 275.371337890625 106.30661010742188 Q 277.9010925292969 103.4365234375 284.7115478515625 96.65933227539062" fill="none" stroke="rgb(13, 13, 13)" stroke-linecap="round" stroke-linejoin="round" stroke-opacity="1.0" stroke-width="0.641710638999939"/>
    <path d="M 208.81040954589844 51.25949478149414 Q 207.83584594726562 47.88779830932617 201.5549774169922 55.28789138793945" fill="none" stroke="rgb(13, 13, 13)" stroke-linecap="round" stroke-linejoin="round" stroke-opacity="1.0" stroke-width="0.03200507164001465"/>
    <path d="M 242.1476287841797 148.2307586669922 Q 248.4983673095703 144.12303161621094 244.47132873535156 137.24888610839844" fill="none" stroke="rgb(13, 13, 13)" stroke-linecap="round" stroke-linejoin="round" stroke-opacity="1.0" stroke-width="0.37766191363334656"/>
    <path d="M 24.43001937866211 192.8647918701172 Q 22.456087112426758 189.3856201171875 26.5098934173584 192.7651824951172" fill="none" stroke="rgb(13, 13, 13)" stroke-linecap="round" stroke-linejoin="round" stroke-opacity="1.0" stroke-width="0.200270876288414"/>
    <path d="M 124.74612426757812 203.70849609375 Q 122.5055923461914 211.22738647460938 124.7526626586914 209.75753784179688" fill="none" stroke="rgb(13, 13, 13)" stroke-linecap="round" stroke-linejoin="round" stroke-opacity="1.0" stroke-width="0.8797512650489807"/>
    <path d="M 137.9290313720703 58.41217803955078 Q 139.79885864257812 61.56952667236328 140.21633911132812 60.173160552978516" fill="none" stroke="rgb(13, 13, 13)" stroke-linecap="round" stroke-linejoin="round" stroke-opacity="1.0" stroke-width="0.7847142219543457"/>
    <path d="M 150.431884765625 115.08657836914062 Q 159.57723999023438 111.3942642211914 163.65098571777344 114.32684326171875" fill="none" stroke="rgb(13, 13, 13)" stroke-linecap="round" stroke-linejoin="round" stroke-opacity="1.0" stroke-width="0.3356243968009949"/>
  </g>
</svg>
